<!--?xml version="1.0" encoding="utf-8"?-->
<!-- Generator: Adobe Illustrator 18.1.1, SVG Export Plug-In . SVG Version: 6.00 Build 0)  -->

<svg version="1.1" id="_x31_0" xmlns="http://www.w3.org/2000/svg" xmlns:xlink="http://www.w3.org/1999/xlink" x="0px" y="0px" viewBox="0 0 512 512" style="width: 128px; height: 128px; opacity: 1;" xml:space="preserve">
<style type="text/css">
	.st0{fill:#374149;}
</style>
<g>
	<path class="st0" d="M429.743,452.425c16.931-20.326,29.971-43.874,34.046-67.645c5.094-29.69-4.145-57.958-18.361-78.087
		c-22.205-33.428-71.954-70.751-135.337-98.022l-2.47-1.062c-63.379-27.272-124.688-37.737-164.226-30.874
		c-24.392,3.516-51.273,16.243-69.329,40.354c-41.174,54.98-32.018,161.378,2.809,187.196
		c21.618,16.025,43.124-18.888,63.426-34.092c16.028-11.997,34.877-16.521,54.144-15.673c0.094,0.004,0.191,0.012,0.285,0.015
		c4.102,0.192,8.22,0.63,12.337,1.286c0.301,0.047,0.602,0.102,0.899,0.152c4.031,0.672,8.051,1.551,12.047,2.63
		c0.184,0.05,0.367,0.102,0.551,0.152c6.297,1.731,12.524,3.93,18.591,6.54l1.042,0.449c0.23,0.102,0.477,0.207,0.707,0.321
		c0.238,0.09,0.485,0.195,0.719,0.293l1.043,0.449c32.85,14.138,60.297,39.746,64.41,75.15c2.918,25.194-7.646,64.814,18.853,69.494
		c7.13,1.262,15.458,0.293,24.342-2.238c0.426-0.122,0.84-0.207,1.266-0.332c2.32-0.7,4.68-1.567,7.07-2.493
		c1.157-0.442,2.301-0.851,3.469-1.344c1.837-0.781,3.688-1.672,5.551-2.57c1.742-0.84,3.477-1.676,5.231-2.614
		c1.519-0.816,3.035-1.699,4.562-2.59c2.043-1.184,4.078-2.395,6.126-3.703c1.442-0.926,2.875-1.899,4.313-2.883
		c2.024-1.379,4.028-2.786,6.032-4.278c1.61-1.188,3.195-2.422,4.786-3.68c1.703-1.348,3.386-2.711,5.062-4.13
		c1.93-1.629,3.829-3.297,5.723-5.012c1.195-1.094,2.379-2.195,3.559-3.32c2.305-2.188,4.558-4.422,6.782-6.731
		c0.637-0.664,1.262-1.34,1.894-2.016c2.641-2.816,5.203-5.695,7.692-8.664C429.508,452.71,429.626,452.566,429.743,452.425z
		 M376.821,385.295c-6.332,6.598-16.81,6.829-23.415,0.493c-6.602-6.321-6.821-16.806-0.5-23.408
		c6.336-6.606,16.814-6.825,23.419-0.492C382.924,368.212,383.142,378.698,376.821,385.295z M103.448,250.666
		c12.13-28.19,44.808-41.206,72.997-29.077c28.182,12.126,41.198,44.804,29.069,72.994c-12.13,28.19-44.808,41.206-72.99,29.084
		C104.335,311.537,91.318,278.854,103.448,250.666z M326.127,386.374c-6.333,6.594-16.81,6.817-23.419,0.492
		c-6.594-6.332-6.818-16.806-0.497-23.407c6.337-6.606,16.81-6.829,23.412-0.508C332.228,369.286,332.452,379.76,326.127,386.374z
		 M276.037,342.133c-0.007,0.007-0.007,0.007-0.011,0.019c-1.86,4.321-6.926,6.34-11.259,4.477l-28.611-12.286
		c-4.332-1.868-6.367-6.926-4.504-11.259l0.004-0.011c1.863-4.333,6.922-6.356,11.266-4.485l28.611,12.286
		C275.881,332.734,277.901,337.8,276.037,342.133z M222.96,223.378c0.324-7.235,14.857-12.462,32.463-11.669
		c17.602,0.801,31.6,7.313,31.268,14.563c-0.332,7.247-14.865,12.47-32.456,11.673C236.632,237.145,222.628,230.625,222.96,223.378z
		 M403.604,361.306c6.337-6.606,16.81-6.829,23.416-0.492c6.602,6.321,6.821,16.806,0.5,23.407
		c-6.333,6.594-16.814,6.829-23.42,0.493C397.503,378.393,397.284,367.904,403.604,361.306z" style="fill: rgb(75, 75, 75);"></path>
	<polygon class="st0" points="171.882,257.022 170.362,244.13 169.683,237.661 169.608,237.715 169.585,237.532 159.197,245.274 
		153.908,249.11 153.994,249.15 153.846,249.259 	" style="fill: rgb(75, 75, 75);"></polygon>
	<polygon class="st0" points="143.153,290.844 137.235,288.211 137.247,288.301 137.079,288.23 139.384,307.724 149.783,299.97 
		155.052,296.137 154.971,296.098 155.116,295.989 	" style="fill: rgb(75, 75, 75);"></polygon>
	<polygon class="st0" points="182.98,288.504 189.449,287.824 189.399,287.75 189.582,287.73 181.75,277.238 177.984,272.058 
		177.948,272.139 177.84,271.995 170.081,290.019 	" style="fill: rgb(75, 75, 75);"></polygon>
	<polygon class="st0" points="138.9,255.388 138.805,255.4 138.88,255.228 125.988,256.744 119.508,257.423 119.562,257.502 
		119.379,257.522 131.121,273.257 136.259,261.314 	" style="fill: rgb(75, 75, 75);"></polygon>
	<path class="st0" d="M287.82,65.063l29.939,12.505c16.33,6.821,24.064,25.654,17.243,41.983l-11.294,27.045l-0.031,0.066
		l-13.348-5.746c-3.426-1.473-7.411-0.446-9.7,2.496l-19.618,25.259c-3.286,4.227-1.692,10.423,3.226,12.54l61.11,26.295
		c4.918,2.117,10.513-0.985,11.325-6.282l4.848-31.612c0.566-3.684-1.43-7.286-4.856-8.758l-14.946-6.43l11.406-27.307
		c10.993-26.318-1.477-56.675-27.798-67.668L295.39,46.945c-15.317-6.399-22.571-24.061-16.173-39.374l-17.899-7.478l-0.074-0.031
		l0,0L261.095,0C250.528,25.306,262.517,54.496,287.82,65.063z" style="fill: rgb(75, 75, 75);"></path>
</g>
</svg>
